<svg xmlns="http://www.w3.org/2000/svg" viewBox="0 0 265.04 54">
<g transform="translate(3669 1115.049)">
<path d="M241.991,153.1h.18a4.01,4.01,0,0,0,4.011-4.01h0V148.9a4.01,4.01,0,0,0-4.011-4.01h-.18a4.009,4.009,0,0,0-4.012,4.007h0v.182a4.01,4.01,0,0,0,4.01,4.01h0" transform="translate(-3829.847 -1251.21)" fill="#150A44"/>
<path d="M557.092,183.616a12.361,12.361,0,0,0-19.639-5.534c-.5.437-.93.956-1.408,1.454-.235-.254-.4-.442-.572-.616a11.884,11.884,0,0,0-9.918-3.626,11.743,11.743,0,0,0-9.125,5.3A14.209,14.209,0,0,0,514.1,188.7c-.013,4.1,0,8.205,0,12.308,0,.127.014.256.022.4h7.051v-.576c0-3.926-.014-7.852.011-11.779a14.223,14.223,0,0,1,.227-2.62c.53-2.765,2.074-4.372,4.6-4.732a5.1,5.1,0,0,1,5.593,2.805,8.358,8.358,0,0,1,.861,3.733c.022,4.221.012,8.44.014,12.659v.515h7.08v-.559c0-3.943-.012-7.883.01-11.825a14.26,14.26,0,0,1,.217-2.575c.528-2.783,2.085-4.41,4.626-4.759a5.1,5.1,0,0,1,5.581,2.829,8.221,8.221,0,0,1,.849,3.647c.022,4.236.015,8.471.017,12.705v.53h7.061c.007-.156.02-.3.02-.441V188.836a16.091,16.091,0,0,0-.839-5.22" transform="translate(-4016.466 -1271.704)" fill="#150A44"/>
<path d="M773.047,189.555a8.366,8.366,0,0,0-4.962-2.941c-1.381-.32-2.781-.556-4.155-.9a5.73,5.73,0,0,1-2.35-1.236,1.694,1.694,0,0,1-.463-1.837c.236-.729,1.1-1.487,3.295-1.487,1.666,0,2.467.855,2.614,2.514a1.491,1.491,0,0,0,.039.154H774.1c0-.135,0-.235,0-.333a7.875,7.875,0,0,0-4.691-7.091,12.2,12.2,0,0,0-10.1-.322,7.979,7.979,0,0,0-4.885,4.753,6.064,6.064,0,0,0,1.6,7.054,12.005,12.005,0,0,0,3.344,2.15,18.577,18.577,0,0,0,4.65,1.24,4.852,4.852,0,0,1,2.744,1.272,1.712,1.712,0,0,1,.216,2.317,3.341,3.341,0,0,1-1.056.891,4.038,4.038,0,0,1-2.561.4c-1.75-.254-2.321-.825-2.641-2.575a.3.3,0,0,0-.041-.081h-7.028c.017.281.022.53.047.776a7.944,7.944,0,0,0,4.837,6.633,12.591,12.591,0,0,0,10.236.333,8.22,8.22,0,0,0,5.068-4.814,6.727,6.727,0,0,0-.786-6.869" transform="translate(-4178.379 -1271.652)" fill="#150A44"/>
<path d="M160.779,178.4a.725.725,0,0,0-.8.523q-3.24,7.455-6.516,14.894c-.061.139-.133.273-.225.464-.1-.228-.179-.384-.249-.542q-3.27-7.465-6.535-14.933a.565.565,0,0,0-.612-.4c-1.674.018-3.346.008-5.02.008h-2.162c.083.193.129.313.185.429q5.713,12.248,11.421,24.494a.515.515,0,0,0,.551.357q2.378-.025,4.758,0a.68.68,0,0,0,.684-.426q5.67-12.192,11.367-24.374c.064-.139.119-.282.2-.481h-.545c-2.168,0-4.338.015-6.5-.01" transform="translate(-3762.719 -1273.852)" fill="#150A44"/>
<path d="M369,178.268c0,8.114-.017,16.232.014,24.346a3.565,3.565,0,0,1-2.087,3.417,6.34,6.34,0,0,1-2.711.685v5.622c1.084,0,2.137.009,3.191-.006a5.7,5.7,0,0,0,1-.122,9.235,9.235,0,0,0,7.651-9.27q.008-12.391,0-24.785v-.447H369Z" transform="translate(-3915.165 -1273.389)" fill="#150A44"/>
<path d="M301.585,188.5a12.578,12.578,0,0,0-2.111-6.919,14.314,14.314,0,0,0-20.458-3.514,13.049,13.049,0,0,0-3.768,16.944,13.579,13.579,0,0,0,11.9,7.153,8.75,8.75,0,0,0,7.584-3.509c.065-.083.134-.165.277-.338v3.1h6.573c.006-.13.015-.215.015-.3,0-4.2.011-8.41-.009-12.616m-13.83,7.286a7.052,7.052,0,1,1,.008,0h-.008" transform="translate(-3853.907 -1271.711)" fill="#150A44"/>
<path d="M684.065,180.572a14.454,14.454,0,0,0-19.8-2.506,13,13,0,0,0-4.337,15.827,13.524,13.524,0,0,0,12.182,8.313,15.007,15.007,0,0,0,9.544-2.962,13.141,13.141,0,0,0,2.622-18.4h0c-.069-.092-.139-.183-.211-.273m-11.214,15.222a7.069,7.069,0,1,1,7-7.137v.05a7.05,7.05,0,0,1-7,7.086" transform="translate(-4114.272 -1271.718)" fill="#150A44"/>
<rect width="7.003" height="25.302" transform="translate(-3591.269 -1095.458)" fill="#150A44"/>
<path d="M434.23,193.1a7.028,7.028,0,0,1-5.556,2.731,7.113,7.113,0,0,1-6.639-4.614h20.528a13.95,13.95,0,0,0,.236-2.449c0-7.438-6.31-13.467-14.125-13.467s-14.125,6.029-14.125,13.467,6.309,13.467,14.125,13.467a14.141,14.141,0,0,0,12.831-7.857Zm-5.556-11.393a7.163,7.163,0,0,1,6.639,4.614H422.036a7.114,7.114,0,0,1,6.639-4.614" transform="translate(-3949.189 -1271.762)" fill="#150A44"/>
<path d="M100.166,117.951l-4.682,8.109h9.363Z" transform="translate(-3733.536 -1233)" fill="#024da0"/>
<path d="M137.548,156.357l2.435-4.218h-4.871Z" transform="translate(-3760.321 -1256.107)" fill="#008937"/>
<path d="M123.368,159.143l-2.462,4.264h4.924Z" transform="translate(-3750.719 -1260.841)" fill="#bbe217"/>
<path d="M95.3,161.077l5.161-8.939H90.143Z" transform="translate(-3729.926 -1256.107)" fill="#43c6f4"/>
<path d="M49.292,246.7,56.163,234.8H42.419Z" transform="translate(-3697.67 -1311.973)" fill="#024da0"/>
<path d="M49.289,198.062l-6.872,11.9H56.162Z" transform="translate(-3697.669 -1287.146)" fill="#0583ff"/>
<path d="M70.491,161.333l-6.873,11.9H77.364Z" transform="translate(-3711.998 -1262.321)" fill="#5fb746"/>
<path d="M70.491,209.967l6.872-11.9H63.618Z" transform="translate(-3711.999 -1287.146)" fill="#01ac4c"/>
<path d="M34.953,198.062H21.207l6.872,11.9Z" transform="translate(-3683.333 -1287.146)" fill="#1defff"/>
<path d="M13.746,161.331H0l6.872,11.9Z" transform="translate(-3669 -1262.319)" fill="#85fcff"/>
<path d="M21.208,173.236H34.954l-6.872-11.9Z" transform="translate(-3683.334 -1262.32)" fill="#43c6f4"/>
</g>
</svg>